<svg width="60" height="60" viewBox="0 0 60 60" fill="none" xmlns="http://www.w3.org/2000/svg">
<path d="M29.8582 4.97632C16.1234 4.97632 4.97638 16.1234 4.97638 29.8581C4.97638 43.5929 16.1234 54.7399 29.8582 54.7399C43.5929 54.7399 54.74 43.5929 54.74 29.8581C54.74 16.1234 43.5929 4.97632 29.8582 4.97632ZM41.4033 21.8959C41.0301 25.8273 39.4128 35.3819 38.5917 39.7859C38.2433 41.6521 37.5466 42.2741 36.8997 42.3488C35.4566 42.4732 34.3618 41.4033 32.9684 40.4826C30.7788 39.0395 29.5347 38.1438 27.4198 36.7504C24.9565 35.1331 26.5489 34.2373 27.9672 32.7942C28.3404 32.4209 34.7101 26.6235 34.8345 26.101C34.8518 26.0218 34.8495 25.9397 34.8278 25.8616C34.8062 25.7836 34.7657 25.712 34.7101 25.6531C34.5608 25.5287 34.3618 25.5784 34.1876 25.6033C33.9637 25.6531 30.4802 27.9671 23.6875 32.5453C22.6922 33.2172 21.7965 33.5655 21.0003 33.5406C20.1045 33.5157 18.4125 33.043 17.1436 32.62C15.576 32.1224 14.3568 31.8487 14.4563 30.9778C14.5061 30.5299 15.1282 30.082 16.2976 29.6093C23.5631 26.4493 28.3901 24.3592 30.8037 23.364C37.7208 20.4777 39.1391 19.98 40.0846 19.98C40.2836 19.98 40.7564 20.0298 41.055 20.2786C41.3038 20.4777 41.3784 20.7514 41.4033 20.9504C41.3784 21.0997 41.4282 21.5476 41.4033 21.8959Z" fill="#F0603C"/>
</svg>
