<svg width="60" height="60" viewBox="0 0 60 60" fill="none" xmlns="http://www.w3.org/2000/svg">
<path d="M29.8582 4.97632C26.5907 4.97632 23.3551 5.61991 20.3363 6.87033C17.3175 8.12076 14.5746 9.95354 12.2641 12.264C7.59785 16.9303 4.97638 23.259 4.97638 29.8581C4.97638 40.8559 12.1175 50.1865 21.9955 53.4958C23.2396 53.6949 23.6377 52.9235 23.6377 52.2517V48.0467C16.7455 49.5396 15.2774 44.7125 15.2774 44.7125C14.1329 41.8263 12.5156 41.0549 12.5156 41.0549C10.2513 39.5122 12.6897 39.562 12.6897 39.562C15.1779 39.7362 16.4967 42.1248 16.4967 42.1248C18.6614 45.9069 22.319 44.7872 23.7373 44.19C23.9612 42.5727 24.6081 41.4779 25.3048 40.8559C19.781 40.2338 13.9836 38.094 13.9836 28.614C13.9836 25.8521 14.9291 23.6377 16.5464 21.8711C16.2976 21.249 15.4267 18.6613 16.7952 15.3023C16.7952 15.3023 18.8853 14.6305 23.6377 17.8402C25.6034 17.2928 27.7432 17.0191 29.8582 17.0191C31.9731 17.0191 34.113 17.2928 36.0786 17.8402C40.831 14.6305 42.9211 15.3023 42.9211 15.3023C44.2896 18.6613 43.4188 21.249 43.1699 21.8711C44.7873 23.6377 45.7328 25.8521 45.7328 28.614C45.7328 38.1189 39.9104 40.2089 34.3618 40.831C35.2575 41.6023 36.0786 43.1201 36.0786 45.4341V52.2517C36.0786 52.9235 36.4767 53.7197 37.7457 53.4958C47.6238 50.1617 54.74 40.8559 54.74 29.8581C54.74 26.5906 54.0964 23.3551 52.846 20.3363C51.5955 17.3175 49.7627 14.5745 47.4523 12.264C45.1418 9.95354 42.3988 8.12076 39.38 6.87033C36.3612 5.61991 33.1257 4.97632 29.8582 4.97632Z" fill="#F0603C"/>
</svg>
