<svg width="50" height="50" viewBox="0 0 50 50" fill="none" xmlns="http://www.w3.org/2000/svg">
<path d="M27.0654 1.48486C15.258 1.60303 5.40059 13.5244 9.55615 25.365C9.5792 25.2773 9.60449 25.1912 9.62842 25.1041C9.8251 20.7169 12.5341 16.6029 16.697 14.261C23.4836 9.41406 34.1328 10.0823 47.0771 20.3037C43.1149 13.6442 38.6611 9.62891 32.3988 6.33399C34.8721 6.46738 37.5395 6.47461 40.5821 7.00059C36.2291 3.06797 31.5093 1.44043 27.0655 1.48496L27.0654 1.48486ZM12.2873 5.11836C-1.16445 9.16719 -1.39141 34.1736 11.5459 39.8516C8.91094 39.3311 6.37559 38.4636 4.13184 37.2278C10.97 50.8782 36.9346 47.67 36.3018 29.2917C34.6207 32.9249 31.1812 35.8933 26.7732 37.0754C23.3434 37.9953 19.881 37.6844 16.9722 36.4152C7.39932 32.579 1.90283 18.0551 12.2876 5.11836H12.2873ZM24.3928 14.0943C23.2026 14.0861 21.9771 14.2381 20.7479 14.5678C14.1925 16.3259 10.2477 22.4133 11.7683 28.0934C12.4554 30.6601 14.1504 32.7398 16.4067 34.0868C18.084 34.7651 19.9175 35.0517 21.7098 34.8827C26.6855 34.413 31.0576 30.1411 30.5412 25.0241C30.1762 21.4089 27.0562 18.2358 23.349 18.641C20.7875 18.921 18.5397 21.1439 18.8448 23.7479C19.0496 25.4962 20.5749 27.0272 22.3316 26.8043H22.3318C23.4648 26.6605 24.4554 25.6654 24.3042 24.558C24.2846 24.4196 24.2448 24.2848 24.186 24.158C23.9806 24.3992 23.7066 24.5722 23.4005 24.6538C22.5639 24.878 21.7036 24.3813 21.4794 23.5447C21.2554 22.708 21.7519 21.8481 22.5888 21.624C22.6366 21.6111 22.6849 21.6011 22.733 21.5928L22.7328 21.5918L22.7455 21.5902H22.746C24.4916 21.3396 25.8969 22.7344 26.1122 24.3109H26.1119C26.4169 26.545 24.609 28.3543 22.5613 28.6141C19.6842 28.979 17.3452 26.6282 17.0326 23.9602C16.5967 20.2385 19.666 17.2082 23.1508 16.8271C23.4472 16.7946 23.7452 16.779 24.0434 16.7805C28.448 16.8021 31.9264 20.5812 32.3564 24.841C32.8084 29.319 30.2478 33.2006 26.5768 35.2351C32.9661 33.3819 36.7789 27.3864 35.2799 21.7864C34.0443 17.1712 29.5506 14.1295 24.3927 14.094L24.3928 14.0943ZM32.1799 14.6145C34.5205 16.1871 36.2861 18.4875 37.043 21.3148C37.1316 21.6459 37.2041 21.9779 37.262 22.3097C39.873 30.6453 36.7574 41.8258 31.0315 47.8362C37.0381 46.2612 41.5311 40.7334 43.125 34.5465C44.3513 38.8607 44.6624 43.3148 43.8105 47.0647C52.9768 32.1642 46.6738 18.074 32.18 14.6146L32.1799 14.6145Z" fill="#F0603C"/>
</svg>
