<svg width="70" height="70" viewBox="0 0 70 70" fill="none" xmlns="http://www.w3.org/2000/svg">
<path d="M47.8516 16.555C47.5103 16.555 47.2828 16.601 47.0531 16.6578V16.6928H47.0881C47.2478 16.9882 47.5103 17.2178 47.7138 17.4913C47.8734 17.7997 48.0091 18.1169 48.1578 18.4253L48.2038 18.3794C48.4772 18.1847 48.615 17.8785 48.615 17.4103C48.5013 17.2725 48.4772 17.126 48.3766 16.9991C48.2628 16.8044 48.0112 16.7038 47.8516 16.555ZM16.8284 55.0397H14.1291C14.0479 50.7431 13.7859 46.4518 13.3437 42.1772H13.3219L9.20937 55.0397H7.14656L3.06687 42.1772H3.03187C2.71485 46.4581 2.52518 50.7475 2.46312 55.0397H0.00218201C0.135507 49.6457 0.534847 44.2616 1.19874 38.9069H4.54781L8.44375 50.7566H8.46562L12.3966 38.9069H15.5859C16.2947 44.7869 16.7125 50.1645 16.8394 55.0397H16.8284ZM28.5403 43.1353C27.4466 49.105 25.9875 53.4472 24.2003 56.1466C22.7886 58.232 21.2465 59.2762 19.5737 59.2791C19.1319 59.2791 18.5814 59.142 17.9222 58.8678V57.4328C18.2525 57.4788 18.6287 57.5116 19.0509 57.5116C19.8362 57.5116 20.4641 57.2841 20.9431 56.8619C21.5119 56.3369 21.797 55.7485 21.7984 55.0966C21.7984 54.6416 21.5819 53.7294 21.1269 52.3403L18.1759 43.1353H20.8316L22.9512 50.0172C23.4303 51.59 23.6359 52.6728 23.5441 53.2985C24.7166 50.1988 25.5259 46.8038 25.9831 43.1353H28.5403ZM64.4963 55.0397H56.8181V38.9069H59.4038V53.0578H64.4963V55.0397ZM54.8122 55.4291L51.8503 53.97C52.1128 53.7557 52.36 53.5128 52.5919 53.2416C53.8563 51.7716 54.4841 49.5732 54.4841 46.6791C54.4841 41.3372 52.3877 38.6677 48.195 38.6707C46.1417 38.6677 44.539 39.3437 43.3869 40.6985C42.1334 42.1794 41.4947 44.3669 41.4947 47.25C41.4947 50.0872 42.0525 52.161 43.1703 53.4932C44.1963 54.6788 45.7341 55.2825 47.7969 55.2825C48.5625 55.284 49.2654 55.1892 49.9056 54.9981L53.7688 57.2535L54.8275 55.4313L54.8122 55.4291ZM45.2091 51.8044C44.5484 50.7566 44.2291 49.07 44.2291 46.7447C44.2276 42.6803 45.4621 40.6489 47.9325 40.6503C49.2209 40.6503 50.1769 41.1403 50.7806 42.1094C51.4303 43.1682 51.7606 44.8328 51.7606 47.1341C51.7606 51.2247 50.5181 53.2875 48.0572 53.2875C46.7578 53.2875 45.8128 52.7975 45.1981 51.8285L45.2091 51.8044ZM40.3769 50.575C40.3769 51.9422 39.8759 53.071 38.8609 53.935C37.8591 54.8122 36.5247 55.2563 34.8272 55.2563C33.2434 55.2563 31.7275 54.7553 30.2356 53.7513L30.9312 52.3622C32.2066 53.001 33.3572 53.3203 34.4072 53.3203C35.3784 53.3189 36.1382 53.106 36.6866 52.6816C37.2334 52.2485 37.5638 51.6447 37.5638 50.8813C37.5638 49.9232 36.8922 49.1028 35.6716 48.4203C34.5428 47.7947 32.2766 46.5063 32.2766 46.5063C31.045 45.6072 30.4412 44.6491 30.4412 43.0653C30.4412 41.7572 30.897 40.705 31.8084 39.9088C32.7316 39.0885 33.9041 38.6903 35.3631 38.6903C36.8147 38.6777 38.2378 39.094 39.4537 39.8869L38.8281 41.276C37.8511 40.8442 36.7965 40.6157 35.7284 40.6044C34.8972 40.6073 34.2592 40.8086 33.8144 41.2082C33.1472 41.8075 33.0969 42.1072 33.0969 42.735C33.0969 43.6932 33.7816 44.5135 35.0328 45.2178C36.1834 45.8435 38.4956 47.1669 38.4956 47.1669C39.76 48.055 40.3878 49.0131 40.3878 50.5728L40.3769 50.575ZM67.7338 33.4972C66.1719 33.4622 64.9644 33.6219 63.9516 34.055C63.6672 34.1688 63.1991 34.1688 63.1531 34.5341C63.3128 34.6938 63.3347 34.9453 63.4725 35.1597C63.7109 35.5469 64.1113 36.0719 64.4875 36.3453C64.8988 36.6647 65.3078 36.9841 65.73 37.2575C66.4934 37.7257 67.3488 37.9991 68.0991 38.465C68.5213 38.7385 68.9544 39.0907 69.3744 39.3772C69.5909 39.526 69.7266 39.7885 70 39.8782V39.8213C69.8622 39.6507 69.8294 39.3991 69.6916 39.1957C69.4969 39.001 69.3044 38.8303 69.1097 38.6378C68.5395 37.8802 67.8555 37.2153 67.0819 36.6669C66.4563 36.2447 65.0891 35.6519 64.8375 34.9344L64.8025 34.8885C65.2247 34.8535 65.7256 34.6938 66.1347 34.58C66.7953 34.4094 67.41 34.4422 68.0947 34.2716C68.4089 34.1904 68.7204 34.0992 69.0288 33.9982V33.8275C68.6766 33.4753 68.4141 32.9963 68.0488 32.666C67.0401 31.7876 65.9659 30.9875 64.8353 30.2728C64.2206 29.8747 63.4463 29.6232 62.7966 29.2928C62.5691 29.1791 62.1709 29.1222 62.0441 28.9275C61.6919 28.4944 61.4863 27.9366 61.2347 27.4225C60.6629 26.3102 60.131 25.1778 59.64 24.0275C59.2878 23.2641 59.0822 22.5116 58.6491 21.805C56.6431 18.4888 54.4556 16.485 51.1066 14.5141C50.3891 14.1028 49.5228 13.9322 48.6106 13.7157C48.1206 13.6938 47.6416 13.6588 47.1516 13.6369C46.8322 13.4991 46.5259 13.136 46.2525 12.9522C45.1369 12.2457 42.2647 10.7297 41.4553 12.7357C40.9303 14.011 42.2297 15.2535 42.6869 15.8922C43.0172 16.3472 43.4394 16.8503 43.6778 17.3513C43.8156 17.6925 43.8484 18.0469 43.9863 18.3991C44.2947 19.2544 44.59 20.2103 45.0013 21.0088C45.2178 21.42 45.4453 21.851 45.7188 22.2163C45.8784 22.4328 46.1519 22.5247 46.2088 22.8769C45.9353 23.275 45.9134 23.8569 45.7647 24.336C45.0581 26.5453 45.3316 29.2688 46.3225 30.8985C46.6419 31.3885 47.3813 32.4603 48.3744 32.0491C49.2516 31.6969 49.0591 30.59 49.3084 29.61C49.3653 29.3716 49.3303 29.2228 49.4463 29.0632V29.1091C49.7306 29.656 50.0041 30.181 50.2556 30.7278C50.8484 31.686 51.9072 32.6769 52.7844 33.3375C53.2525 33.6897 53.6156 34.2957 54.1975 34.51V34.4532H54.1516C54.0269 34.2825 53.8672 34.2016 53.7075 34.066C53.3381 33.7 52.9952 33.3082 52.6816 32.8935C51.8722 31.7997 51.1437 30.5922 50.505 29.3497C50.1976 28.7357 49.9166 28.1087 49.6628 27.4707C49.5491 27.2432 49.5491 26.8888 49.3544 26.775C49.0591 27.1972 48.6259 27.5603 48.4203 28.0963C48.0441 28.9275 48.0091 29.9644 47.8625 31.0363C47.7947 31.0582 47.8275 31.0363 47.7947 31.0822C47.1691 30.9225 46.9525 30.2838 46.7228 29.7369C46.13 28.3478 46.0381 26.1253 46.5412 24.5307C46.6791 24.1194 47.2588 22.8332 47.0312 22.446C46.9066 22.0697 46.5194 21.8532 46.3138 21.5578C46.0513 21.1925 45.7888 20.7266 45.6072 20.3153C45.1391 19.2216 44.9116 18.0141 44.3997 16.9203C44.1722 16.4194 43.7609 15.8944 43.4306 15.4285C43.0544 14.9035 42.6453 14.5294 42.3587 13.9125C42.2559 13.696 42.1203 13.3438 42.28 13.1141C42.315 12.9544 42.3937 12.8975 42.5534 12.8516C42.805 12.635 43.5334 12.9085 43.785 13.0332C44.5025 13.3175 45.1063 13.591 45.71 14.0022C45.9834 14.1969 46.2788 14.56 46.6331 14.6628H47.0444C47.67 14.8007 48.3656 14.6978 48.9475 14.8794C49.9844 15.2097 50.9184 15.6888 51.7606 16.2116C54.3364 17.8647 56.4309 20.1674 57.8331 22.8878C58.0716 23.3319 58.1744 23.7432 58.3909 24.2091C58.7891 25.1782 59.3031 26.145 59.7122 27.0682C60.1213 27.9913 60.5106 28.9253 61.1012 29.6888C61.3966 30.1 62.5603 30.3144 63.0941 30.52C63.4813 30.7016 64.085 30.8613 64.4263 31.0669C65.0978 31.4782 65.7584 31.9441 66.3863 32.3991C66.7056 32.6157 67.6747 33.1057 67.7316 33.4928L67.7338 33.4972Z" fill="black"/>
</svg>
