<svg width="50" height="70" viewBox="0 0 50 70" fill="none" xmlns="http://www.w3.org/2000/svg">
<g clip-path="url(#clip0_16_2)">
<path d="M49.9131 13.7219L45.3738 64.2072L24.9695 69.8231L4.62148 64.215L0.0869141 13.7219H49.9131Z" fill="#E44D26"/>
<path d="M25 65.5304L41.4877 60.9924L45.3666 17.8503H25V65.5304Z" fill="#F16529"/>
<path d="M16.1758 30.2361H25V24.0433H9.3588L9.50801 25.7047L11.0412 42.7704H25V36.5776H16.7459L16.1758 30.2361ZM17.5816 45.8669H11.3199L12.1938 55.5905L24.9713 59.1118L25 59.104V52.6609L24.9727 52.6681L18.0258 50.8058L17.5816 45.8669Z" fill="#EBEBEB"/>
<path d="M4.72266 0H7.89258V3.10928H10.7924V0H13.9625V9.41568H10.7926V6.26277H7.89277V9.41568H4.72285L4.72266 0ZM18.1309 3.12247H15.3406V0H24.0934V3.12247H21.3014V9.41568H18.1314V3.12247H18.1309ZM25.4824 0H28.7877L30.8209 3.30842L32.8521 0H36.1588V9.41568H33.0018V4.74875L30.8209 8.09654H30.7662L28.584 4.74875V9.41568H25.4824V0ZM37.7363 0H40.9072V6.30349H45.365V9.41568H37.7361L37.7363 0Z" fill="black"/>
<path d="M24.9785 42.7704H32.6596L31.9353 50.802L24.9783 52.6662V59.1089L37.766 55.5905L37.8598 54.5441L39.3258 38.2405L39.4779 36.5776H24.9785V42.7704ZM24.9785 30.221V30.2361H40.0455L40.1705 28.8442L40.4549 25.7047L40.6039 24.0433H24.9785V30.221Z" fill="white"/>
</g>
<defs>
<clipPath id="clip0_16_2">
<rect width="50" height="70" fill="white"/>
</clipPath>
</defs>
</svg>
