<svg width="57" height="70" viewBox="0 0 57 70" fill="none" xmlns="http://www.w3.org/2000/svg">
<path d="M28.5 30.8367C31.3759 30.8367 33.7073 28.4894 33.7073 25.5939C33.7073 22.6984 31.3759 20.3511 28.5 20.3511C25.6241 20.3511 23.2927 22.6984 23.2927 25.5939C23.2927 28.4894 25.6241 30.8367 28.5 30.8367Z" fill="#61DAFB"/>
<path d="M28.5 44.8739C32.5874 48.8764 36.6189 51.2442 39.8664 51.2442C40.9303 51.2442 41.9381 51.0187 42.778 50.5113C45.6896 48.8201 46.7534 44.592 45.7456 38.56C45.5776 37.4888 45.3536 36.4177 45.0737 35.2903C46.1935 34.952 47.2014 34.6138 48.2092 34.2755C53.8644 32.0769 57 29.0327 57 25.7066C57 22.3242 53.8644 19.28 48.2092 17.1378C47.2014 16.7431 46.1935 16.4049 45.0737 16.123C45.3536 14.9955 45.5776 13.9244 45.7456 12.8533C46.6974 6.70853 45.6336 2.42409 42.722 0.732865C41.8821 0.225497 40.8743 0 39.8104 0C36.6189 0 32.5314 2.36772 28.444 6.37028C24.4126 2.36772 20.3811 0 17.1336 0C16.0697 0 15.0619 0.225497 14.222 0.732865C11.3104 2.42409 10.2466 6.65216 11.2544 12.6842C11.4224 13.7553 11.6464 14.8264 11.9263 15.9539C10.8065 16.2921 9.79862 16.6304 8.79076 16.9686C3.13556 19.1672 0 22.2114 0 25.5375C0 28.92 3.13556 31.9642 8.79076 34.1064C9.79862 34.501 10.8065 34.8393 11.9263 35.1211C11.6464 36.2486 11.4224 37.3197 11.2544 38.3908C10.3026 44.4229 11.3664 48.7073 14.222 50.3422C15.0619 50.8495 16.0697 51.075 17.1336 51.075C20.3811 51.1878 24.4126 48.8201 28.5 44.8739ZM25.3644 37.2633C26.3723 37.3197 27.4361 37.3197 28.5 37.3197C29.5639 37.3197 30.6277 37.3197 31.6356 37.2633C30.6277 38.6163 29.5639 39.8566 28.5 41.0404C27.4361 39.8566 26.3723 38.6163 25.3644 37.2633ZM18.4214 31.4568C18.9813 32.4152 19.4853 33.3172 20.1012 34.2191C18.3654 33.9936 16.7416 33.7118 15.1739 33.3735C15.6778 31.8514 16.2377 30.2729 16.9096 28.6945C17.3576 29.5965 17.8615 30.5548 18.4214 31.4568ZM15.1739 17.8706C16.7416 17.5324 18.3654 17.2505 20.1012 17.025C19.5413 17.927 18.9813 18.829 18.4214 19.7873C17.8615 20.7457 17.3576 21.6477 16.9096 22.6061C16.1817 20.9712 15.6218 19.3927 15.1739 17.8706ZM18.2534 25.5939C18.9813 24.0718 19.7652 22.5497 20.6611 21.0276C21.501 19.5619 22.4528 18.0961 23.4047 16.6304C25.0845 16.5176 26.7642 16.4613 28.5 16.4613C30.2917 16.4613 31.9715 16.5176 33.5953 16.6304C34.6031 18.0961 35.499 19.5619 36.3389 21.0276C37.2348 22.5497 38.0187 24.0718 38.7466 25.5939C38.0187 27.116 37.2348 28.6381 36.3389 30.1602C35.499 31.6259 34.5471 33.0917 33.5953 34.5574C31.9155 34.6701 30.2358 34.7265 28.5 34.7265C26.7083 34.7265 25.0285 34.6701 23.4047 34.5574C22.3969 33.0917 21.501 31.6259 20.6611 30.1602C19.7652 28.6381 18.9813 27.116 18.2534 25.5939ZM40.1464 22.5497L38.6346 19.731C38.0747 18.7726 37.5707 17.8706 36.9548 16.9686C38.6906 17.1941 40.3143 17.476 41.8821 17.8142C41.3782 19.3927 40.8183 20.9712 40.1464 22.5497ZM40.1464 28.6381C40.8183 30.2166 41.3782 31.7951 41.8821 33.3172C40.3143 33.6554 38.6906 33.9373 36.9548 34.1628C37.5147 33.2608 38.0747 32.3588 38.6346 31.4004C39.1385 30.5548 39.6424 29.5965 40.1464 28.6381ZM41.4342 48.1999C40.9862 48.4818 40.4263 48.5946 39.8104 48.5946C37.0668 48.5946 33.6513 46.3396 30.2917 42.9571C31.9155 41.2095 33.4833 39.2365 35.0511 37.0379C37.6827 36.8124 40.2024 36.4177 42.554 35.854C42.834 36.8687 43.002 37.8835 43.1699 38.8982C43.9538 43.69 43.3379 47.1288 41.4342 48.1999ZM44.3458 18.4907C50.6169 20.2947 54.3684 23.0571 54.3684 25.5939C54.3684 27.7925 51.7927 29.9911 47.2574 31.7387C46.3615 32.0769 45.3536 32.4152 44.3458 32.697C43.6179 30.3857 42.722 28.018 41.6022 25.5939C42.722 23.1698 43.6739 20.8021 44.3458 18.4907ZM39.8664 2.59321C40.4823 2.59321 40.9862 2.70596 41.4902 2.98783C43.3379 4.05894 44.0098 7.44139 43.2259 12.2896C43.058 13.2479 42.834 14.2627 42.61 15.3338C40.2583 14.8264 37.7387 14.4318 35.1071 14.1499C33.5953 11.9513 31.9715 9.97823 30.3477 8.23063C33.7073 4.90456 37.1228 2.59321 39.8664 2.59321ZM31.6356 13.9244C30.6277 13.8681 29.5639 13.8681 28.5 13.8681C27.4361 13.8681 26.3723 13.8681 25.3644 13.9244C26.3723 12.5714 27.4361 11.3312 28.5 10.1474C29.5639 11.3312 30.6277 12.6278 31.6356 13.9244ZM15.5658 2.98783C16.0138 2.70596 16.5737 2.59321 17.1896 2.59321C19.9332 2.59321 23.3487 4.84818 26.7082 8.23063C25.0845 9.97823 23.5167 11.9513 21.9489 14.1499C19.3173 14.3754 16.7976 14.77 14.446 15.3338C14.166 14.319 13.998 13.3043 13.8301 12.2896C13.0462 7.49777 13.6621 4.11532 15.5658 2.98783ZM12.6542 32.697C6.3831 30.8931 2.63163 28.1307 2.63163 25.5939C2.63163 23.3953 5.20727 21.1967 9.74263 19.4491C10.6385 19.1109 11.6464 18.7726 12.6542 18.4907C13.3821 20.8021 14.278 23.1698 15.3978 25.5939C14.278 28.018 13.3261 30.4421 12.6542 32.697ZM13.8301 38.8982C13.998 37.9398 14.222 36.9251 14.446 35.854C16.7976 36.3614 19.3173 36.756 21.9489 37.0379C23.4607 39.2365 25.0845 41.2095 26.7082 42.9571C23.3487 46.2832 19.9332 48.5946 17.1896 48.5946C16.5737 48.5946 16.0697 48.4818 15.5658 48.1999C13.6621 47.1288 13.0462 43.69 13.8301 38.8982ZM11.4784 62.1244C12.7102 60.6023 12.7662 58.911 12.0943 57.2198C11.4224 55.5286 10.0226 54.7394 8.28684 54.683C6.21513 54.6266 4.08743 54.683 2.01572 54.683H1.62377V69.2839H3.30354V63.7592H5.93517C6.27112 63.7592 6.55108 63.872 6.71906 64.1538L10.0786 69.3966C10.1346 69.5094 10.3026 69.6785 10.4145 69.6785H12.5982C11.2544 67.5927 9.9666 65.6196 8.62279 63.5901C9.79862 63.421 10.8065 63.0264 11.4784 62.1244ZM3.30354 62.0116V56.4306H3.91945C5.20727 56.4306 6.55108 56.3742 7.8389 56.487C9.35069 56.5433 10.4145 57.7272 10.4145 59.2493C10.4145 60.7714 9.18271 61.9552 7.67092 62.0116C6.32711 62.068 4.9833 62.0116 3.30354 62.0116ZM24.9725 62.7445C24.0766 58.7983 20.4931 57.7836 17.7495 59.0238C15.6218 59.9822 14.6699 61.8425 14.6139 64.1538C14.558 65.9014 15.0619 67.4799 16.4057 68.6638C17.9175 70.0168 19.7652 70.1859 21.669 69.8476C22.7328 69.6221 23.6847 69.1148 24.4126 68.3255C24.1326 67.9309 23.8526 67.5363 23.5727 67.1981C22.0049 68.551 20.2692 69.002 18.3654 68.1C17.1336 67.4799 16.5177 65.9578 16.4057 64.8303H25.0845V64.0975C25.1405 63.5901 25.0845 63.1391 24.9725 62.7445ZM16.5177 63.6465C16.3497 61.9552 18.0295 60.1513 19.8772 60.1513C22.0049 60.0949 23.3487 61.3915 23.4047 63.6465H16.5177ZM33.7073 58.7419C32.8674 58.5728 31.9715 58.5164 31.1316 58.5728C29.7878 58.6855 28.612 59.3057 27.6601 60.3204C27.9401 60.715 28.164 61.1096 28.5 61.5606C28.612 61.4479 28.724 61.3351 28.836 61.2788C29.7318 60.4332 30.7957 59.9822 32.0835 60.0949C33.0914 60.1513 34.0432 60.4895 34.3232 61.5043C34.5471 62.2935 34.4912 63.1391 34.5472 63.9847C34.3792 63.9847 34.3232 63.9283 34.2672 63.872C32.9234 62.7445 31.4116 62.519 29.7878 62.9136C28.276 63.3082 27.3242 64.4921 27.2122 66.0142C27.1002 67.7618 27.8841 69.0584 29.3959 69.6785C30.3477 70.0731 31.4116 70.0731 32.4194 69.8476C33.2033 69.6785 33.5393 69.2275 34.6591 68.6074V69.3403H36.2269C36.2269 67.0853 36.2829 64.323 36.2269 61.7298C36.2269 60.0949 35.2751 59.0802 33.7073 58.7419ZM34.4912 65.8451C34.4352 66.0142 34.4912 66.1833 34.4912 66.3524C34.4912 67.5363 34.2112 67.9309 33.0914 68.3819C32.3075 68.6638 31.4676 68.7765 30.6277 68.4947C29.6758 68.2128 29.0039 67.3672 29.0039 66.4088C28.9479 65.4505 29.5638 64.4921 30.5157 64.2102C31.8035 63.7592 32.9794 64.0411 34.0432 64.8303C34.3792 65.1122 34.6031 65.3941 34.4912 65.8451ZM43.2259 60.264C44.6817 59.813 46.0255 60.0949 47.0334 61.3351L47.2014 61.4479C47.5933 61.1096 47.9293 60.7714 48.3772 60.3768C48.2092 60.2076 48.1532 60.0949 48.0413 59.9258C46.4175 58.1782 43.2259 57.9527 41.2662 59.362C38.5226 61.3915 38.5786 65.3377 39.9224 67.4235C41.2102 69.3966 43.058 70.0731 45.2416 69.7913C46.5295 69.6221 47.5933 69.002 48.4332 67.9309C48.0413 67.5927 47.6493 67.2544 47.2574 66.8598C47.1454 66.9726 47.0894 67.0289 47.0334 67.1417C45.5216 68.8329 43.002 68.6638 41.6582 66.8598C40.8743 65.7887 40.7063 64.5485 40.9303 63.3082C41.0422 61.8989 41.7701 60.7714 43.2259 60.264ZM54.8723 67.9309C54.7603 67.9873 54.7043 68.0437 54.7043 68.0437C54.2564 68.3819 53.8084 68.4383 53.3045 68.2692C52.8006 68.0437 52.7446 67.5927 52.6886 67.1417V60.715C52.6886 60.6023 52.6886 60.8278 52.7446 60.264H54.8723V58.5728H52.6326V55.7541H50.9528V58.7983H49.4971C49.3851 58.7983 49.2171 58.911 49.2171 59.0238C49.1611 59.4184 49.2171 59.7003 49.2171 60.264H51.0088V67.4799C51.0088 68.3819 51.2328 69.1712 52.0167 69.6221C52.8566 70.1295 54.4804 70.0168 55.2082 69.3966C55.3202 69.3403 55.3762 69.1148 55.3762 69.0584C55.2082 68.7202 55.0403 68.3255 54.8723 67.9309Z" fill="#61DAFB"/>
</svg>
